<?xml version="1.0" encoding="utf-8"?>
<!-- Generator: Adobe Illustrator 16.0.0, SVG Export Plug-In . SVG Version: 6.00 Build 0)  -->
<!DOCTYPE svg PUBLIC "-//W3C//DTD SVG 1.1//EN" "http://www.w3.org/Graphics/SVG/1.1/DTD/svg11.dtd">
<svg version="1.1" id="Layer_1" xmlns="http://www.w3.org/2000/svg" xmlns:xlink="http://www.w3.org/1999/xlink" x="0px" y="0px"
	 width="500px" height="300px" viewBox="0 0 500 300" enable-background="new 0 0 500 300" xml:space="preserve">
<circle fill="#1A2838" cx="281.511" cy="130.636" r="109.333"/>
<path fill="#1B1B1C" stroke="#EFEFEF" stroke-width="7" stroke-linecap="round" stroke-linejoin="round" stroke-miterlimit="10" d="
	M311.031,184.412l31.961,5.666c7.871,1.662,12.982,9.295,11.527,17.205l0,0c-1.453,7.896-8.924,13.203-16.857,11.979l-55.223-8.52
	c-4.141-0.639-8.205-1.707-12.125-3.186l-23.057-8.691"/>
<path fill="none" stroke="#EFEFEF" stroke-width="7" stroke-linecap="round" stroke-linejoin="round" stroke-miterlimit="10" d="
	M234.63,190"/>
<path fill="none" stroke="#EFEFEF" stroke-width="7" stroke-linecap="round" stroke-linejoin="round" stroke-miterlimit="10" d="
	M202.802,224.955"/>
<path fill="#1B1B1C" stroke="#EFEFEF" stroke-width="7" stroke-linecap="round" stroke-linejoin="round" stroke-miterlimit="10" d="
	M206.165,206.871c-12.764,19.84-68.947,26.934-68.947,26.934V116.961l77.903,0.885c9.769-31.733,29.758-49.495,64.221-49.495
	c35.725,0,61.113,27.175,61.113,62.898c0,35.725-28.945,63.233-64.482,62.872c-17.549-0.18-28.715-8.064-28.715-8.064v32.094
	c0,9.422,5.895,17.836,14.75,21.053l27.695,10.059c7.23,2.627,11.074,10.512,8.689,17.824l0,0
	c-2.316,7.105-9.727,11.217-16.98,9.424l-34.976-8.646c-19.011-4.699-33.417-20.24-36.666-39.553l-6.968-41.432"/>
<path fill="none" stroke="#EFEFEF" stroke-width="7" stroke-linecap="round" stroke-linejoin="round" stroke-miterlimit="10" d="
	M117.1,236.506"/>
<path fill="#1B1B1C" stroke="#EFEFEF" stroke-width="7" stroke-linecap="round" stroke-linejoin="round" stroke-miterlimit="10" d="
	M137.218,113.855c-4.982-1.24-10.19-1.909-15.556-1.909c-35.437,0-64.164,28.728-64.164,64.164
	c0,35.438,28.727,64.164,64.164,64.164c5.366,0,10.574-0.668,15.556-1.91V113.855z"/>
<path fill="none" stroke="#EFEFEF" stroke-width="4" stroke-linecap="round" stroke-linejoin="round" stroke-miterlimit="10" d="
	M286.654,68.746c0,0-2.438-17.731-20.887-20.527"/>
<path fill="none" stroke="#EFEFEF" stroke-width="4" stroke-linecap="round" stroke-linejoin="round" stroke-miterlimit="10" d="
	M272.084,68.352c0,0-1.475-10.724-12.633-12.415"/>
<path fill="#1B1B1C" stroke="#EFEFEF" stroke-width="7" stroke-linecap="round" stroke-linejoin="round" stroke-miterlimit="10" d="
	M97.218,154.73L97.218,154.73c13.883,0,25.138,11.254,25.138,25.137v30.539c0,29.002-23.51,52.512-52.511,52.512H38.802
	c-2.012,0-3.964,0.688-5.533,1.947l-9.411,7.566c-1.568,1.26-3.52,1.947-5.532,1.947l0,0c-5.604,0-9.79-5.152-8.642-10.637
	l6.761-32.307c0.803-3.84,4.046-6.689,7.958-6.994l35.878-2.787c7.193-1.697,12.24-8.166,12.136-15.557l-0.333-25.908
	C71.903,166.182,83.209,154.73,97.218,154.73z"/>
<rect x="361.578" y="232.982" fill="none" stroke="#EFEFEF" stroke-width="7" stroke-linecap="round" stroke-linejoin="round" stroke-miterlimit="10" width="45.713" height="45.713"/>
<rect x="443.762" y="232.328" fill="none" stroke="#EFEFEF" stroke-width="7" stroke-linecap="round" stroke-linejoin="round" stroke-miterlimit="10" width="45.711" height="45.713"/>
<g>
	
		<rect x="400.966" y="190.96" transform="matrix(0.7071 0.7071 -0.7071 0.7071 275.3257 -237.0622)" fill="none" stroke="#EFEFEF" stroke-width="7" stroke-linecap="round" stroke-linejoin="round" stroke-miterlimit="10" width="45.713" height="45.713"/>
	
		<text transform="matrix(0.7071 0.7071 -0.7071 0.7071 406.4902 213.0117)" fill="#EFEFEF" font-family="'GothamRounded-Bold'" font-size="33.6869">A</text>
</g>
<text transform="matrix(1 0 0 1 456.0996 267.1699)" fill="#EFEFEF" font-family="'GothamRounded-Bold'" font-size="33.6867">B</text>
<path fill="none" stroke="#EFEFEF" stroke-width="4" stroke-linecap="round" stroke-linejoin="round" stroke-miterlimit="10" d="
	M307.686,79.842c-0.627,14.738-8.328,28.91-21.838,37.221c-11.49,7.069-24.87,8.475-36.881,4.995"/>
<path fill="none" stroke="#EFEFEF" stroke-width="4" stroke-linecap="round" stroke-linejoin="round" stroke-miterlimit="10" d="
	M309.857,79.176c5.105,13.651,14.625,25.769,28,33.998c3.895,2.395,7.934,4.349,12.064,5.879"/>
<circle fill="#EFEFEF" cx="309.857" cy="137.021" r="6.385"/>
</svg>
